<svg id="Layer_1" data-name="Layer 1" xmlns="http://www.w3.org/2000/svg" viewBox="0 0 856.45 366.45"><defs><style>.cls-1{fill:#f5f4f2;stroke:#283850;stroke-linecap:round;stroke-linejoin:round;stroke-width:10px;}</style></defs><title>canimmunize-banner copy 4</title><path class="cls-1" d="M223.85,289.35v66.52H151.74V289.35H5V227.91L151.74,10.59h72.11v209.2h41.63v69.56Zm-72.11-69.56V112.14L80.66,219.79Z"/><path class="cls-1" d="M556.94,129.91V236c0,72.61-52.8,125.42-124.91,125.42S306.61,308.64,306.61,236V129.91C306.61,57.81,359.93,5,432,5S556.94,57.81,556.94,129.91Zm-178.22,2V234.51c0,32.5,19.8,56.36,53.31,56.36,33,0,52.81-23.86,52.81-56.36V131.94c0-33-19.8-56.36-52.81-56.36C398.52,75.58,378.72,98.94,378.72,131.94Z"/><path class="cls-1" d="M809.81,289.35v66.52h-72.1V289.35H591V227.91L737.71,10.59h72.1v209.2h41.64v69.56Zm-72.1-69.56V112.14L666.62,219.79Z"/></svg>