<svg id="Layer_1" data-name="Layer 1" xmlns="http://www.w3.org/2000/svg" viewBox="0 0 581.04 377.8"><defs><style>.cls-1{fill:#24cbbe;}.cls-2{fill:#efeeec;stroke:#2a374d;stroke-linecap:round;stroke-linejoin:round;stroke-width:11.98px;}</style></defs><title>Artboard 1 copy</title><path class="cls-1" d="M283.15,296.54c-9.4,37.57-23,64.82-42.2,72.5-55.46-14-48.15-216.14-75.54-314.35-7.59-27.3-17.85-46.6-32.93-51.55a.62.62,0,0,1-.37-.59.67.67,0,0,1,.64-.69h73.54C264.67,1.86,260.58,189.2,283.15,296.54Z"/><path class="cls-1" d="M404.17,147.13C383.41,231.44,385.86,369.86,329,369.86H256.4a.69.69,0,0,1-.37-1.23c.14-.05.23-.05.37-.09h0c15.58-4.77,25.94-21.76,33.48-45.2,25.17-77.9,19.58-227.45,73.23-238.89C382.41,89.67,394.9,109.93,404.17,147.13Z"/><path class="cls-1" d="M565.7,369.18a.62.62,0,0,1-.64.63H492.47c-62.23,0-53.37-165.94-81.76-245.12C403.3,104,393.36,89.17,378.82,84.9a.64.64,0,0,1-.41-.59.7.7,0,0,1,.68-.68h72.5c78.54,0,43.93,263.92,113.47,284.86a.16.16,0,0,1,.14.05s.14,0,.18,0A.67.67,0,0,1,565.7,369.18Z"/><path class="cls-1" d="M159.05,82.27c-21,108.29-18.31,287.54-75.41,287.54H10a.65.65,0,0,1-.27-1.23C78.51,346.24,47.94,25.89,116.58,3.18,137.88,9.4,149.42,37.8,159.05,82.27Z"/><path class="cls-2" d="M127.93,6C46.64,6,87.29,371.81,6,371.81h81.3c61.91,0,53.1-212.15,81.29-313.33C159.76,26.81,147.31,6,127.93,6Z"/><path class="cls-2" d="M168.58,58.48C196.77,159.66,188,371.81,249.87,371.81c20.77,0,33.57-18.59,42.48-46.23C261.93,227.2,272.45,6,209.23,6h-81.3c19.38,0,31.83,20.82,40.65,52.49"/><path class="cls-2" d="M371.81,87.29c-60.52,0-53.46,157.71-79.46,238.29-8.91,27.64-21.71,46.23-42.48,46.23h81.3c61.91,0,53.1-165,81.29-243.7C403.64,103.48,391.19,87.29,371.81,87.29Z"/><path class="cls-2" d="M412.46,128.11c28.19,78.69,19.38,243.7,81.29,243.7h81.3c-81.3,0-40.65-284.52-121.94-284.52h-81.3c19.38,0,31.83,16.19,40.65,40.82"/></svg>