<svg xmlns="http://www.w3.org/2000/svg"><symbol id="arrow" viewBox="0 0 256 256"><defs><style>.cls-1{fill:#f5f4f2}</style></defs><path d="M181.1 254.88a21.19 21.19 0 0 1-15-6.23L59.88 142.46a21.26 21.26 0 0 1 0-30.05L166.07 6.22a21.25 21.25 0 0 1 30.05 30.05L105 127.44l91.17 91.17a21.25 21.25 0 0 1-15 36.27z" class="cls-1"/></symbol><symbol id="code-icon" viewBox="0 0 256 256"><defs><style>.cls-1{fill:#2a374d}</style></defs><path d="M71.1 63.72a6.51 6.51 0 0 0-9.19 0L2.23 123.4a6.52 6.52 0 0 0 0 9.2l59.68 59.68a6.5 6.5 0 1 0 9.19-9.2L16 128l55.1-55.08a6.51 6.51 0 0 0 0-9.2zm182.67 59.68l-59.68-59.68a6.5 6.5 0 1 0-9.19 9.2L240 128l-55.1 55.08a6.5 6.5 0 0 0 9.19 9.2l59.68-59.68a6.51 6.51 0 0 0 0-9.2zm-76.71-89.74a6.51 6.51 0 0 0-8.74 2.86L78.61 213.61a6.5 6.5 0 1 0 11.59 5.87l89.72-177.09a6.5 6.5 0 0 0-2.86-8.73z" class="cls-1"/></symbol><symbol id="book-icon" viewBox="0 0 256 256"><defs><style>.cls-1{fill:#2a374d}</style></defs><path d="M192.42 0H48.79a6.5 6.5 0 0 0-6.5 6.5v214.41a6.5 6.5 0 0 0 6.5 6.5h9.46v21.46a6.5 6.5 0 0 0 6.5 6.5h45.78a6.5 6.5 0 0 0 6.5-6.5v-21.46h75.39A18.61 18.61 0 0 0 211 208.83V18.61A18.6 18.6 0 0 0 192.42 0zM104 242.37H71.25v-14.3H104zm94-33.54a5.59 5.59 0 0 1-5.58 5.58H55.29V13h137.13a5.59 5.59 0 0 1 5.58 5.61z" class="cls-1"/><path d="M170.11 53.37H83.17a6.5 6.5 0 0 0-6.5 6.5v44a6.5 6.5 0 0 0 6.5 6.5h86.94a6.5 6.5 0 0 0 6.5-6.5v-44a6.5 6.5 0 0 0-6.5-6.5zm-6.5 44H89.67v-31h73.94zm-70.99 30.34h68.04v13H92.62z" class="cls-1"/></symbol><symbol id="pen-tool-icon" viewBox="0 0 256 256"><defs><style>.cls-1{fill:#2a374d}</style></defs><path d="M206.15 153.81a6.5 6.5 0 0 0 .38-5.94L143.58 4a6.49 6.49 0 0 0-6-3.9h-19.21a6.49 6.49 0 0 0-6 3.9l-62.9 143.87a6.5 6.5 0 0 0 .38 5.94l24.49 40.94v10.6h-11a6.5 6.5 0 0 0-6.5 6.5v37.54a6.5 6.5 0 0 0 6.5 6.5h129.3a6.5 6.5 0 0 0 6.5-6.5v-37.54a6.5 6.5 0 0 0-6.5-6.5h-11v-10.6zm-20 89.08H69.86v-24.54h116.28zM128 123a12.27 12.27 0 1 1-12.27 12.26A12.28 12.28 0 0 1 128 123zm-65.28 27L121.5 15.69v95.11a25.27 25.27 0 1 0 13 0V15.69L193.27 150l-23.69 39.61a6.53 6.53 0 0 0-.92 3.34V205H87.34v-12a6.53 6.53 0 0 0-.92-3.34z" class="cls-1"/></symbol><symbol id="tea-icon" viewBox="0 0 256 256"><defs><style>.cls-1{fill:#2a374d}</style></defs><path d="M256 114.11a81 81 0 0 0-74.65-80.67V20.55a6.5 6.5 0 0 0-6.5-6.5H6.55a6.5 6.5 0 0 0-6.5 6.5v182.58A38.87 38.87 0 0 0 38.88 242H142.5a38.87 38.87 0 0 0 38.83-38.82v-8.36A81 81 0 0 0 256 114.11zm-87.67-47.56h-44.07v-39.5h44.07zm-57.07-39.5v39.5H13.05v-39.5zM142.5 229H38.88a25.85 25.85 0 0 1-25.83-25.82V79.55h98.21v26.7H96.1a6.5 6.5 0 0 0-6.5 6.5v58.65a6.5 6.5 0 0 0 6.5 6.5h43.31a6.5 6.5 0 0 0 6.5-6.5v-58.65a6.5 6.5 0 0 0-6.5-6.5h-15.15v-26.7h44.07v123.58A25.85 25.85 0 0 1 142.5 229zm-9.59-109.7v45.6H102.6v-45.65zm48.42 62.49V46.47a67.93 67.93 0 0 1 0 135.27z" class="cls-1"/></symbol></svg>