<svg viewBox="0 0 583.01 377.8" xmlns="http://www.w3.org/2000/svg"><g fill="none" stroke="#2c2c51" stroke-linecap="round" stroke-linejoin="round" stroke-width="11.98"><path d="m127.93 6c-81.29 0-40.64 365.81-121.93 365.81h81.3c61.91 0 53.1-212.15 81.29-313.33-8.83-31.67-21.28-52.48-40.66-52.48z"/><path d="m168.58 58.48c28.19 101.18 19.42 313.33 81.29 313.33 20.77 0 33.57-18.59 42.48-46.23-30.42-98.38-19.9-319.58-83.12-319.58h-81.3c19.38 0 31.83 20.82 40.65 52.49"/><path d="m371.81 87.29c-60.52 0-53.46 157.71-79.46 238.29-8.91 27.64-21.71 46.23-42.48 46.23h81.3c61.91 0 53.1-165 81.29-243.7-8.82-24.63-21.27-40.82-40.65-40.82z"/><path d="m412.46 128.11c28.19 78.69 19.38 243.7 81.29 243.7h81.3c-81.3 0-40.65-284.52-121.94-284.52h-81.3c19.38 0 31.83 16.19 40.65 40.82"/></g></svg>