<svg id="Layer_1" data-name="Layer 1" xmlns="http://www.w3.org/2000/svg" viewBox="0 0 583.01 377.8"><defs><style>.cls-1{fill:none;stroke:#2c2c51;stroke-linecap:round;stroke-linejoin:round;stroke-width:11.98px;}</style></defs><title>Artboard 1</title><path class="cls-1" d="M127.93,6C46.64,6,87.29,371.81,6,371.81H87.3c61.91,0,53.1-212.15,81.29-313.33C159.76,26.81,147.31,6,127.93,6Z"/><path class="cls-1" d="M168.58,58.48C196.77,159.66,188,371.81,249.87,371.81c20.77,0,33.57-18.59,42.48-46.23C261.93,227.2,272.45,6,209.23,6h-81.3c19.38,0,31.83,20.82,40.65,52.49"/><path class="cls-1" d="M371.81,87.29c-60.52,0-53.46,157.71-79.46,238.29-8.91,27.64-21.71,46.23-42.48,46.23h81.3c61.91,0,53.1-165,81.29-243.7C403.64,103.48,391.19,87.29,371.81,87.29Z"/><path class="cls-1" d="M412.46,128.11c28.19,78.69,19.38,243.7,81.29,243.7h81.3c-81.3,0-40.65-284.52-121.94-284.52h-81.3c19.38,0,31.83,16.19,40.65,40.82"/></svg>