<svg id="Layer_1" data-name="Layer 1" xmlns="http://www.w3.org/2000/svg" viewBox="0 0 1408.22 377.8"><defs><style>.cls-1{fill:#2a374d;}.cls-2{fill:#24cbbe;}.cls-3{fill:#efeeec;stroke:#2a374d;stroke-linecap:round;stroke-linejoin:round;stroke-width:11.98px;}</style></defs><title>Artboard 1</title><path class="cls-1" d="M650.83,224.71,626.2,158.63v66.08H604.07v-106h27.12l29.46,77.78L690,118.73h27v106H694.78V158.63l-24.63,66.08Z"/><path class="cls-1" d="M734.05,224.71v-106h60.32v21.36H756.18v20.57h35.07V182H756.18v21.35h38.19v21.35ZM785.64,88.65l-13.41,22.92H756.65L768,88.65Z"/><path class="cls-1" d="M808.55,224.71v-106h22.13v84.63h38.18v21.35Z"/><path class="cls-1" d="M947.88,202.12H910l-7.94,22.59H877.28l39.27-106h24.78l39.28,106H955.83Zm-30.55-21.36h23.38l-11.69-33Z"/><path class="cls-1" d="M1011.46,163.46v61.25H989.33V132L982,120.29v-1.56h26.18l46.44,67.49V118.73h22.13v106h-22.13Z"/><path class="cls-1" d="M1122,178.89l-34.13-60.16h24.94L1133,157.07l20.41-38.34h24.78l-34.13,60.48v45.5H1122Z"/><path class="cls-1" d="M596.79,252.94h18c12,0,20.44,7.14,20.44,19.47s-8.41,19.27-20.44,19.27H602.46v27.77h-5.67Zm18,5.28H602.46v28.17h12.33c8.21,0,14.47-4.3,14.47-14S623,258.22,614.79,258.22Z"/><path class="cls-1" d="M644.72,319.45V252.94h34.72v5.28H650.39v25.14h27.09v5.28H650.39v25.53h29.05v5.28Z"/><path class="cls-1" d="M691.57,319.45V252.94h5.67v61.23h29v5.28Z"/><path class="cls-1" d="M735.29,319.45V252.94H741v61.23h29v5.28Z"/><path class="cls-1" d="M777.05,319.45V252.94h34.73v5.28h-29v25.14h27.09v5.28H782.73v25.53h29v5.28Z"/><path class="cls-1" d="M838.77,258.22H820.19v-5.28h42.64v5.28H844.44v61.23h-5.67Z"/><path class="cls-1" d="M873.79,252.94h5.67v66.51h-5.67Z"/><path class="cls-1" d="M894.13,319.45V252.94h34.72v5.28H899.8v25.14h27.1v5.28H899.8v25.53h29.05v5.28Z"/><path class="cls-1" d="M939,252.94h18c12,0,20.35,6.95,20.35,18.29,0,9.69-6.26,15.26-14.58,17.22,7.83,3.42,15.55,14.47,18.39,31h-5.87c-3.32-17.6-13-29.34-22-29.34H944.7v29.34H939Zm17.89,5.28H944.7v26.61h12.22c8.32,0,14.48-4.7,14.48-13.2S965.24,258.22,956.92,258.22Z"/><path class="cls-1" d="M991.35,294.12v-5.18h24v5.18Z"/><path class="cls-1" d="M1020.41,252.94h6.35l22,59.67,22.11-59.67h6.35L1052,319.45h-6.36Z"/><path class="cls-1" d="M1111.86,298.62h-28.47l-7.72,20.83h-6.36l25.24-66.51h6.35l25.24,66.51h-6.36Zm-26.61-5.38H1110l-12.33-32.86Z"/><path class="cls-1" d="M1135.23,252.94h5.68v66.51h-5.68Z"/><path class="cls-1" d="M1153.62,319.45V252.94h5.68v61.23h29v5.28Z"/><path class="cls-1" d="M1199.3,319.45V252.94H1205v61.23h29v5.28Z"/><path class="cls-1" d="M1280.09,298.62h-28.46l-7.73,20.83h-6.36l25.24-66.51h6.35l25.24,66.51H1288Zm-26.6-5.38h24.74l-12.32-32.86Z"/><path class="cls-1" d="M1311.39,267.13v52.32h-5.67V260.08l-4.5-6.55v-.59h7l42.65,56.93V252.94h5.67v66.51h-5.67Z"/><path class="cls-1" d="M1384.16,258.22h-18.58v-5.28h42.64v5.28h-18.39v61.23h-5.67Z"/><path class="cls-2" d="M283.15,296.54c-9.4,37.57-23,64.82-42.2,72.5-55.46-14-48.15-216.14-75.54-314.35-7.59-27.3-17.85-46.6-32.93-51.55a.62.62,0,0,1-.37-.59.67.67,0,0,1,.64-.69h73.54C264.67,1.86,260.58,189.2,283.15,296.54Z"/><path class="cls-2" d="M404.17,147.13C383.41,231.44,385.86,369.86,329,369.86H256.4a.69.69,0,0,1-.37-1.23c.14-.05.23-.05.37-.09h0c15.58-4.77,25.94-21.76,33.48-45.2,25.17-77.9,19.58-227.45,73.23-238.89C382.41,89.67,394.9,109.93,404.17,147.13Z"/><path class="cls-2" d="M565.7,369.18a.62.62,0,0,1-.64.63H492.47c-62.23,0-53.37-165.94-81.76-245.12C403.3,104,393.36,89.17,378.82,84.9a.64.64,0,0,1-.41-.59.7.7,0,0,1,.68-.68h72.5c78.54,0,43.93,263.92,113.47,284.86a.16.16,0,0,1,.14.05s.14,0,.18,0A.67.67,0,0,1,565.7,369.18Z"/><path class="cls-2" d="M159.05,82.27c-21,108.29-18.31,287.54-75.41,287.54H10a.65.65,0,0,1-.27-1.23C78.51,346.24,47.94,25.89,116.58,3.18,137.88,9.4,149.42,37.8,159.05,82.27Z"/><path class="cls-3" d="M127.93,6C46.64,6,87.29,371.81,6,371.81h81.3c61.91,0,53.1-212.15,81.29-313.33C159.76,26.81,147.31,6,127.93,6Z"/><path class="cls-3" d="M168.58,58.48C196.77,159.66,188,371.81,249.87,371.81c20.77,0,33.57-18.59,42.48-46.23C261.93,227.2,272.45,6,209.23,6h-81.3c19.38,0,31.83,20.82,40.65,52.49"/><path class="cls-3" d="M371.81,87.29c-60.52,0-53.46,157.71-79.46,238.29-8.91,27.64-21.71,46.23-42.48,46.23h81.3c61.91,0,53.1-165,81.29-243.7C403.64,103.48,391.19,87.29,371.81,87.29Z"/><path class="cls-3" d="M412.46,128.11c28.19,78.69,19.38,243.7,81.29,243.7h81.3c-81.3,0-40.65-284.52-121.94-284.52h-81.3c19.38,0,31.83,16.19,40.65,40.82"/></svg>